<svg xmlns="http://www.w3.org/2000/svg"  viewBox="0 0 128 128" width="64px" height="64px"><circle cx="64" cy="64" r="55" fill="#fff"/><path fill="#444b54" d="M64,122C32,122,6,96,6,64S32,6,64,6s58,26,58,58S96,122,64,122z M64,12c-28.7,0-52,23.3-52,52s23.3,52,52,52 s52-23.3,52-52S92.7,12,64,12z"/><path fill="#71c2ff" d="M64,49c-5.5,0-10-4.5-10-10s4.5-10,10-10s10,4.5,10,10S69.5,49,64,49z M64,35c-2.2,0-4,1.8-4,4s1.8,4,4,4 s4-1.8,4-4S66.2,35,64,35z"/><path fill="#71c2ff" d="M64,102c-5.5,0-10-4.5-10-10V68c0-5.5,4.5-10,10-10s10,4.5,10,10v24C74,97.5,69.5,102,64,102z M64,64 c-2.2,0-4,1.8-4,4v24c0,2.2,1.8,4,4,4s4-1.8,4-4V68C68,65.8,66.2,64,64,64z"/></svg>