<?xml version="1.0" encoding="iso-8859-1"?>
<!-- Generator: Adobe Illustrator 19.0.0, SVG Export Plug-In . SVG Version: 6.00 Build 0)  -->
<svg version="1.1" id="Layer_1" xmlns="http://www.w3.org/2000/svg" xmlns:xlink="http://www.w3.org/1999/xlink" x="0px" y="0px"
	 viewBox="0 0 511.984 511.984" style="enable-background:new 0 0 511.984 511.984;" xml:space="preserve">
<rect x="106.661" y="74.672" style="fill:#CCD1D9;" width="298.67" height="106"/>
<path style="fill:#E6E9ED;" d="M437.326,469.33c0,23.562-19.124,42.654-42.686,42.654H117.328
	c-23.562,0-42.671-19.093-42.671-42.654V159.995c0-23.562,19.108-42.655,42.671-42.655h277.312
	c23.562,0,42.686,19.093,42.686,42.655V469.33H437.326z"/>
<path style="fill:#ED5564;" d="M255.995,31.999c-117.402,0-149.339,42.671-149.339,42.671v21.327h298.671V74.67
	C405.327,74.67,373.389,31.999,255.995,31.999z"/>
<path style="fill:#FFCE54;" d="M277.331,21.343c0,11.781-9.555,21.328-21.336,21.328c-11.796,0-21.343-9.547-21.343-21.328
	S244.199,0,255.995,0C267.776,0,277.331,9.562,277.331,21.343z"/>
<path style="fill:#EAAD7A;" d="M221.168,472.782c4.375-6.358,4.781-11.843,5.531-22.796c0.766-10.968-2.203-21.405-6.891-30.827
	c-2.891-5.797-8.999-20.03-18.093-24.921c-9.109-4.891-20.187-11.625-36.999-11.375c-16.796,0.25-44.14,13.016-54.17,19.844
	c-10.031,6.827-13.953,13.968-14.766,25.452c-0.797,11.469-1.094,11.078,4.797,29.546c5.906,18.452,15.016,29.171,21.968,33.015
	c6.969,3.844,8.016,4.078,19.188,5.125c11.171,1.047,24.249,2.547,32.405,1.938s18.796-0.422,25.89-5.75
	C207.122,486.688,216.887,479.001,221.168,472.782z"/>
<g>
	<path style="fill:#7F4545;" d="M154.31,418.987c-4.155,4.172-4.155,10.922,0,15.094c4.172,4.156,10.922,4.156,15.094,0
		c4.156-4.172,4.156-10.922,0-15.094C165.232,414.831,158.482,414.831,154.31,418.987z"/>
	<path style="fill:#7F4545;" d="M162.154,454.049c-4.172,4.156-4.172,10.922,0,15.078c4.156,4.171,10.922,4.171,15.078,0
		c4.172-4.156,4.172-10.922,0-15.078C173.076,449.877,166.31,449.877,162.154,454.049z"/>
	<path style="fill:#7F4545;" d="M121.546,427.471c-4.171,4.172-4.171,10.922,0,15.077c4.172,4.172,10.922,4.172,15.094,0
		c4.156-4.155,4.156-10.905,0-15.077C132.468,423.3,125.718,423.3,121.546,427.471z"/>
</g>
<path style="fill:#EAAD7A;" d="M218.73,490.485c6.5,4.891,12.438,6.047,24.281,8.344c11.858,2.281,23.515,1.109,34.226-1.766
	c6.593-1.766,22.717-5.219,28.904-12.75c6.219-7.531,14.625-16.577,16.031-31.843c1.375-15.249-9.844-41.858-16.312-51.936
	c-6.438-10.078-13.843-14.672-26.248-17.078c-12.398-2.391-11.961-2.609-32.632,0.047c-20.672,2.641-33.233,9.328-38.093,15.078
	c-4.875,5.75-5.234,6.656-7.469,16.624c-2.219,9.953-5.156,21.594-5.297,29.062c-0.125,7.469-1.375,17.078,3.734,24.281
	C204.966,475.751,212.372,485.704,218.73,490.485z"/>
<g>
	<path style="fill:#7F4545;" d="M271.714,454.892c-3.641-4.625-10.344-5.453-14.984-1.812c-4.641,3.625-5.453,10.328-1.812,14.969
		c3.625,4.64,10.328,5.452,14.969,1.828C274.518,466.236,275.331,459.533,271.714,454.892z"/>
	<path style="fill:#7F4545;" d="M248.62,433.815c-3.624-4.641-10.327-5.453-14.968-1.828c-4.641,3.641-5.453,10.343-1.828,14.983
		c3.641,4.641,10.344,5.453,14.984,1.812C251.432,445.158,252.261,438.456,248.62,433.815z"/>
	<path style="fill:#7F4545;" d="M276.143,417.518c-3.625-4.641-10.32-5.453-14.961-1.828c-4.641,3.641-5.453,10.344-1.828,14.984
		c3.641,4.641,10.344,5.453,14.977,1.812C278.987,428.862,279.8,422.159,276.143,417.518z"/>
</g>
<path style="fill:#EAAD7A;" d="M289.08,462.33c2.844,7.062,7.343,10.718,16.374,17.999c9.062,7.281,19.938,11.562,31,13.984
	c6.812,1.5,22.905,5.875,32.748,2.344c9.812-3.516,22.469-7.328,32.594-19.531c10.124-12.202,15.843-39.654,16.062-51.045
	c0.25-11.391-3.531-18.593-12.999-26.218c-9.469-7.641-8.938-7.609-28.594-14.719c-19.624-7.125-34.529-7.188-42.154-4.547
	c-7.594,2.641-8.469,3.234-16.219,10.609c-7.781,7.375-17.125,15.828-21.594,22.046c-4.499,6.219-11.187,13.734-10.937,22.109
	C285.642,443.721,286.299,455.439,289.08,462.33z"/>
<g>
	<path style="fill:#7F4545;" d="M379.452,443.924c-0.719-5.843-6.062-9.999-11.906-9.265c-5.844,0.719-9.999,6.046-9.28,11.89
		c0.75,5.844,6.062,10,11.905,9.281C376.014,455.096,380.171,449.767,379.452,443.924z"/>
	<path style="fill:#7F4545;" d="M345.609,446.236c-0.719-5.844-6.03-9.983-11.905-9.265c-5.844,0.734-9.969,6.046-9.25,11.905
		c0.719,5.844,6.062,9.984,11.906,9.266S346.359,452.08,345.609,446.236z"/>
	<path style="fill:#7F4545;" d="M375.108,415.096c-0.75-5.844-6.062-9.999-11.906-9.265c-5.843,0.719-9.999,6.046-9.28,11.905
		c0.719,5.844,6.062,9.984,11.905,9.266C371.671,426.268,375.827,420.94,375.108,415.096z"/>
</g>
<path style="fill:#F4BE8E;" d="M166.092,438.003c6.797,3.593,12.766,3.765,24.687,4.077c11.938,0.312,23.438-2.608,33.905-6.968
	c6.422-2.672,22.188-8.406,27.843-16.438c5.656-8.031,13.422-17.843,13.75-32.39c0.344-14.53-12.594-37.796-19.687-46.265
	c-7.094-8.452-14.734-11.624-27.234-11.968c-12.483-0.328-12.062-0.594-32.421,5.094c-20.343,5.688-32.374,13.905-36.826,20.062
	c-4.453,6.156-4.75,7.062-6.297,16.766c-1.531,9.702-3.656,21.077-3.281,28.124c0.359,7.031-0.234,16.249,5.344,22.218
	C151.436,426.3,159.467,434.487,166.092,438.003z"/>
<g>
	<path style="fill:#7F4545;" d="M236.465,388.957c-4.156-4.188-10.906-4.203-15.094-0.062c-4.172,4.156-4.203,10.906-0.062,15.094
		c4.156,4.171,10.906,4.202,15.094,0.062C240.574,399.894,240.605,393.144,236.465,388.957z"/>
	<path style="fill:#7F4545;" d="M197.497,386.785c-4.141-4.188-10.906-4.203-15.077-0.062c-4.188,4.156-4.219,10.906-0.062,15.094
		c4.14,4.172,10.905,4.203,15.077,0.047C201.622,397.722,201.653,390.972,197.497,386.785z"/>
	<path style="fill:#7F4545;" d="M200.653,351.536c-4.141-4.188-10.891-4.219-15.078-0.062c-4.187,4.141-4.202,10.906-0.062,15.078
		c4.156,4.188,10.906,4.219,15.078,0.062C204.778,362.473,204.809,355.708,200.653,351.536z"/>
</g>
<path style="fill:#F4BE8E;" d="M371.671,382.176c-0.219-7.515-0.562-8.452-5.656-17.687c-5.125-9.219-10.812-20.203-15.812-26.187
	c-4.969-5.969-10.562-14.328-19.343-16.891s-21.188-5.89-29.25-5.78c-8.249,0.109-13.53,2.812-24.092,8.249
	c-10.523,5.438-18.57,13.5-24.727,22.312c-3.797,5.422-13.64,17.984-13.233,27.734c0.422,9.733,0.219,22.03,9.562,34.92
	c9.328,12.891,35.96,27.047,47.709,31.062c11.75,4.015,20.5,3.124,31.531-2.562c11.031-5.688,10.844-5.25,24.718-19.969
	C366.921,402.644,371.889,389.691,371.671,382.176z"/>
<g>
	<path style="fill:#7F4545;" d="M293.924,402.551c5.749,1.25,11.437-2.422,12.655-8.172c1.25-5.766-2.406-11.438-8.156-12.672
		c-5.78-1.25-11.437,2.422-12.687,8.172C284.486,395.644,288.174,401.316,293.924,402.551z"/>
	<path style="fill:#7F4545;" d="M304.579,368.286c5.781,1.234,11.438-2.422,12.688-8.188c1.25-5.75-2.438-11.422-8.188-12.672
		c-5.75-1.234-11.438,2.422-12.688,8.188C295.174,361.364,298.829,367.036,304.579,368.286z"/>
	<path style="fill:#7F4545;" d="M329.61,402.551c5.75,1.25,11.438-2.422,12.688-8.172c1.219-5.766-2.438-11.438-8.188-12.672
		c-5.75-1.25-11.438,2.422-12.688,8.172C320.204,395.644,323.86,401.316,329.61,402.551z"/>
</g>
<path style="fill:#FFD2A6;" d="M320.204,327.631c-0.25-6.422-0.562-7.219-5.688-15.093c-5.094-7.875-10.781-17.234-15.781-22.344
	c-4.968-5.109-10.562-12.234-19.342-14.421c-8.789-2.188-21.18-5.031-29.258-4.938c-8.265,0.094-13.546,2.406-24.077,7.046
	c-10.53,4.641-18.577,11.516-24.749,19.047c-3.781,4.625-13.641,15.344-13.219,23.655c0.422,8.312,0.219,18.812,9.547,29.812
	c9.344,10.984,35.983,23.078,47.733,26.499c11.749,3.422,20.483,2.672,31.522-2.187c11.03-4.859,10.843-4.484,24.686-17.047
	C315.454,345.098,320.423,334.037,320.204,327.631z"/>
<g>
	<path style="fill:#7F4545;" d="M230.558,339.678c5.766,1.249,11.438-2.422,12.672-8.172c1.25-5.766-2.422-11.438-8.172-12.688
		c-5.766-1.234-11.438,2.422-12.672,8.188C221.137,332.771,224.808,338.443,230.558,339.678z"/>
	<path style="fill:#7F4545;" d="M261.839,315.538c5.766,1.233,11.43-2.422,12.68-8.188s-2.438-11.438-8.18-12.672
		c-5.766-1.234-11.438,2.422-12.672,8.188C252.417,308.616,256.089,314.288,261.839,315.538z"/>
	<path style="fill:#7F4545;" d="M273.237,350.348c5.75,1.234,11.437-2.422,12.655-8.188c1.25-5.749-2.406-11.421-8.155-12.671
		c-5.773-1.234-11.445,2.422-12.695,8.188C263.807,343.427,267.464,349.114,273.237,350.348z"/>
</g>
<path style="fill:#DA4453;" d="M412.857,77.795c-2.094-2.078-4.812-3.125-7.53-3.125l0,0h-300.64v0.188
	c-2.031,0.375-3.984,1.359-5.578,2.938c-4.156,4.172-4.156,10.921,0,15.077c1.594,1.594,3.547,2.562,5.578,2.953v0.172h300.64l0,0
	c2.718,0,5.437-1.031,7.53-3.125C417.013,88.716,417.013,81.967,412.857,77.795z"/>
<g>
	<path style="fill:#CCD1D9;" d="M114.203,114.216c4.172-4.172,4.172-10.922,0-15.094c-2.078-2.078-4.812-3.125-7.547-3.125v21.343
		C109.39,117.34,112.125,116.293,114.203,114.216z"/>
	<path style="fill:#CCD1D9;" d="M397.764,99.122c-4.156,4.172-4.156,10.922,0,15.094c2.094,2.078,4.812,3.125,7.562,3.125V95.997
		C402.577,95.997,399.858,97.044,397.764,99.122z"/>
</g>
<g>
</g>
<g>
</g>
<g>
</g>
<g>
</g>
<g>
</g>
<g>
</g>
<g>
</g>
<g>
</g>
<g>
</g>
<g>
</g>
<g>
</g>
<g>
</g>
<g>
</g>
<g>
</g>
<g>
</g>
</svg>
